<svg id="Layer_1" data-name="Layer 1" xmlns="http://www.w3.org/2000/svg" xmlns:xlink="http://www.w3.org/1999/xlink" viewBox="0 0 854.59 189.21"><defs><style>.cls-1,.cls-10,.cls-2{fill:none;}.cls-10,.cls-2{stroke:#111;stroke-miterlimit:10;}.cls-2{stroke-width:50px;}.cls-3{clip-path:url(#clip-path);}.cls-4{fill:#1ce5b5;}.cls-5{clip-path:url(#clip-path-2);}.cls-6{fill:#e234ce;}.cls-7{clip-path:url(#clip-path-3);}.cls-8{fill:#fff;}.cls-9{clip-path:url(#clip-path-4);}.cls-10{stroke-width:26px;}</style><clipPath id="clip-path" transform="translate(-70.78 -59.77)"><polygon class="cls-1" points="431.92 153.09 431.92 174.45 741.29 120.65 825.15 159.82 911.22 176.2 911.22 47.07 84.78 47.07 84.78 201.35 217.37 201.35 431.92 153.09"/></clipPath><clipPath id="clip-path-2" transform="translate(-70.78 -59.77)"><polygon class="cls-1" points="53.02 235.12 439.92 148.09 439.92 169.45 749.29 115.65 833.15 154.82 922.75 171.88 928.1 235.12 53.02 235.12"/></clipPath><clipPath id="clip-path-3" transform="translate(-70.78 -59.77)"><polygon class="cls-1" points="50.02 236.12 436.92 149.09 436.92 170.45 746.29 116.65 830.15 155.82 919.75 172.88 925.1 236.12 50.02 236.12"/></clipPath><clipPath id="clip-path-4" transform="translate(-70.78 -59.77)"><polygon class="cls-1" points="433.92 151.09 433.92 172.45 743.29 118.65 827.15 157.82 913.22 174.2 913.22 45.07 86.78 45.07 86.78 199.35 219.37 199.35 433.92 151.09"/></clipPath></defs><title>ultrasonics-api-logo</title><path class="cls-2" d="M132.42,194.6q-16.45,0-26.55-9.63T95.78,159.59V114.66h21V157.2q0,8.3,4.15,13t11.46,4.67q7.31,0,11.39-4.71t4.07-12.93V114.66h21v44.93q0,15.75-10,25.38T132.42,194.6Z" transform="translate(-70.78 -59.77)"/><path class="cls-2" d="M188,192.42V86.6h21V192.42Z" transform="translate(-70.78 -59.77)"/><path class="cls-2" d="M267.13,173.72h9.57v18.7H261.79q-12.8,0-20.21-7.42t-7.42-20.35V131.53H220.1V127l30.72-32.69h4v20.32h21.45v16.87h-21.1v30.31q0,5.68,3.1,8.79T267.13,173.72Z" transform="translate(-70.78 -59.77)"/><path class="cls-2" d="M330.77,114.23h6.89v19.83h-9.07q-8.86,0-12.69,4.19T312.06,152v40.43H291V114.66h13.43l3.73,9.56Q316.21,114.23,330.77,114.23Z" transform="translate(-70.78 -59.77)"/><path class="cls-2" d="M411.28,114.52H427v77.76H410.5l-1.83-7a37,37,0,0,1-25.17,9.28,41.33,41.33,0,0,1-20.88-5.34A38.12,38.12,0,0,1,348,174.46a42.59,42.59,0,0,1-5.27-21.06A42,42,0,0,1,348,132.48a38,38,0,0,1,14.63-14.69,41.51,41.51,0,0,1,20.88-5.31A37.15,37.15,0,0,1,409,122ZM370,168.62a22,22,0,0,0,30.3,0,22.38,22.38,0,0,0,0-30.52,21.94,21.94,0,0,0-30.3,0,22.28,22.28,0,0,0,0,30.44Z" transform="translate(-70.78 -59.77)"/><path class="cls-2" d="M474.77,194.6q-14.62,0-23.59-7.63t-9-20.14H462.6a9.2,9.2,0,0,0,3.62,7.66c2.37,1.79,5.5,2.67,9.39,2.67a14.27,14.27,0,0,0,7.84-2,6.47,6.47,0,0,0,3.2-5.77,5.18,5.18,0,0,0-1.09-3.3,8,8,0,0,0-3.41-2.36,30.68,30.68,0,0,0-4.57-1.48c-1.5-.35-3.47-.73-5.91-1.16q-3.3-.56-5.55-1t-5.45-1.37a31.3,31.3,0,0,1-5.38-2,30.15,30.15,0,0,1-4.6-2.92,16.16,16.16,0,0,1-3.87-4,20.77,20.77,0,0,1-2.39-5.38,23.91,23.91,0,0,1-.95-7,22,22,0,0,1,8.65-18q8.64-6.91,22.64-6.92t22.57,7.13q8.51,7.14,8.58,18.81H486a8.3,8.3,0,0,0-3.13-6.89q-3.06-2.33-8.61-2.32a12.64,12.64,0,0,0-7.63,2,6.37,6.37,0,0,0-2.78,5.41,5.45,5.45,0,0,0,.46,2.29,4.12,4.12,0,0,0,1.61,1.76c.78.49,1.5.91,2.18,1.26a15.25,15.25,0,0,0,3.1,1.06c1.38.35,2.5.61,3.37.77l4,.74q11.33,2,16.32,4.22,12.58,5.63,12.58,19.69,0,11.88-8.93,19T474.77,194.6Z" transform="translate(-70.78 -59.77)"/><path class="cls-2" d="M559.71,194.6a43.61,43.61,0,0,1-21.52-5.34,38.79,38.79,0,0,1-15.08-14.77,43.2,43.2,0,0,1,0-42,38.66,38.66,0,0,1,15.08-14.69,46.1,46.1,0,0,1,43,0,38.93,38.93,0,0,1,15.12,14.73,42.92,42.92,0,0,1,0,42,39.09,39.09,0,0,1-15.12,14.77A43.47,43.47,0,0,1,559.71,194.6ZM544.8,168.9a21.67,21.67,0,0,0,29.81,0q5.83-5.94,5.84-15.36t-5.84-15.36a21.64,21.64,0,0,0-29.81,0Q539,144.12,539,153.54T544.8,168.9Z" transform="translate(-70.78 -59.77)"/><path class="cls-2" d="M661,112.83q13.22,0,21,8.82t7.8,23.66v47.11h-21V148.69q0-17.44-13.57-17.44-8.09,0-12.76,5.45t-4.68,14.87v40.85h-21V114.66h14.41l4.08,9.63a31.51,31.51,0,0,1,11.22-8.4A34.55,34.55,0,0,1,661,112.83Z" transform="translate(-70.78 -59.77)"/><path class="cls-2" d="M709.05,104.32V84.77h21v19.55Zm0,88.1V114.66h21v77.76Z" transform="translate(-70.78 -59.77)"/><path class="cls-2" d="M786.32,194.6A42,42,0,0,1,770,191.4a39.1,39.1,0,0,1-21.8-21.83,42.11,42.11,0,0,1-3.16-16.24,41.58,41.58,0,0,1,3.16-16.17,39.29,39.29,0,0,1,8.65-13A39.84,39.84,0,0,1,770,115.61a43.16,43.16,0,0,1,16.42-3.13q15,0,25.84,8.75A38.54,38.54,0,0,1,826,144.4H805.1a19.9,19.9,0,0,0-7.53-9,20.44,20.44,0,0,0-11.25-3.2,18.76,18.76,0,0,0-14.24,6.09,21.14,21.14,0,0,0-5.73,15.08,21.59,21.59,0,0,0,5.77,15.22,18.59,18.59,0,0,0,14.2,6.22,19.19,19.19,0,0,0,11.25-3.37,21.83,21.83,0,0,0,7.53-9.63h21.16a38.93,38.93,0,0,1-13.75,23.73Q801.51,194.6,786.32,194.6Z" transform="translate(-70.78 -59.77)"/><path class="cls-2" d="M867.74,194.6q-14.62,0-23.59-7.63t-9-20.14h20.46a9.18,9.18,0,0,0,3.62,7.66c2.37,1.79,5.5,2.67,9.39,2.67a14.31,14.31,0,0,0,7.84-2,6.47,6.47,0,0,0,3.2-5.77,5.24,5.24,0,0,0-1.09-3.3,8.08,8.08,0,0,0-3.41-2.36,30.68,30.68,0,0,0-4.57-1.48c-1.5-.35-3.47-.73-5.91-1.16q-3.3-.56-5.55-1c-1.51-.3-3.32-.76-5.45-1.37a31,31,0,0,1-5.38-2,30.2,30.2,0,0,1-4.61-2.92,16.16,16.16,0,0,1-3.87-4,21.11,21.11,0,0,1-2.39-5.38,24.26,24.26,0,0,1-.94-7,22,22,0,0,1,8.64-18q8.65-6.91,22.64-6.92t22.57,7.13q8.52,7.14,8.58,18.81h-20a8.27,8.27,0,0,0-3.13-6.89c-2-1.55-4.91-2.32-8.61-2.32a12.66,12.66,0,0,0-7.63,2,6.38,6.38,0,0,0-2.77,5.41,5.6,5.6,0,0,0,.45,2.29,4.22,4.22,0,0,0,1.62,1.76c.77.49,1.5.91,2.18,1.26a15.34,15.34,0,0,0,3.09,1.06c1.38.35,2.51.61,3.38.77l4,.74q11.32,2,16.31,4.22,12.59,5.63,12.59,19.69,0,11.88-8.93,19T867.74,194.6Z" transform="translate(-70.78 -59.77)"/><g class="cls-3"><path class="cls-4" d="M130.42,196.6q-16.45,0-26.55-9.63T93.78,161.59V116.66h21V159.2q0,8.3,4.15,13t11.46,4.67q7.31,0,11.39-4.71t4.07-12.93V116.66h21v44.93q0,15.75-10,25.38T130.42,196.6Z" transform="translate(-70.78 -59.77)"/><path class="cls-4" d="M186,194.42V88.6h21V194.42Z" transform="translate(-70.78 -59.77)"/><path class="cls-4" d="M265.13,175.72h9.57v18.7H259.79q-12.8,0-20.21-7.42t-7.42-20.35V133.53H218.1V129l30.72-32.69h4v20.32h21.45v16.87h-21.1v30.31q0,5.68,3.1,8.79T265.13,175.72Z" transform="translate(-70.78 -59.77)"/><path class="cls-4" d="M328.77,116.23h6.89v19.83h-9.07q-8.86,0-12.69,4.19T310.06,154v40.43H289V116.66h13.43l3.73,9.56Q314.21,116.23,328.77,116.23Z" transform="translate(-70.78 -59.77)"/><path class="cls-4" d="M409.28,116.52H425v77.76H408.5l-1.83-7a37,37,0,0,1-25.17,9.28,41.33,41.33,0,0,1-20.88-5.34A38.12,38.12,0,0,1,346,176.46a42.59,42.59,0,0,1-5.27-21.06A42,42,0,0,1,346,134.48a38,38,0,0,1,14.63-14.69,41.51,41.51,0,0,1,20.88-5.31A37.15,37.15,0,0,1,407,124ZM368,170.62a22,22,0,0,0,30.3,0,22.38,22.38,0,0,0,0-30.52,21.94,21.94,0,0,0-30.3,0,22.28,22.28,0,0,0,0,30.44Z" transform="translate(-70.78 -59.77)"/><path class="cls-4" d="M472.77,196.6q-14.62,0-23.59-7.63t-9-20.14H460.6a9.2,9.2,0,0,0,3.62,7.66c2.37,1.79,5.5,2.67,9.39,2.67a14.27,14.27,0,0,0,7.84-2,6.47,6.47,0,0,0,3.2-5.77,5.18,5.18,0,0,0-1.09-3.3,8,8,0,0,0-3.41-2.36,30.68,30.68,0,0,0-4.57-1.48c-1.5-.35-3.47-.73-5.91-1.16q-3.3-.56-5.55-1t-5.45-1.37a31.3,31.3,0,0,1-5.38-2,30.15,30.15,0,0,1-4.6-2.92,16.16,16.16,0,0,1-3.87-4,20.77,20.77,0,0,1-2.39-5.38,23.91,23.91,0,0,1-.95-7,22,22,0,0,1,8.65-18q8.64-6.91,22.64-6.92t22.57,7.13q8.51,7.14,8.58,18.81H484a8.3,8.3,0,0,0-3.13-6.89q-3.06-2.33-8.61-2.32a12.64,12.64,0,0,0-7.63,2,6.37,6.37,0,0,0-2.78,5.41,5.45,5.45,0,0,0,.46,2.29,4.12,4.12,0,0,0,1.61,1.76c.78.49,1.5.91,2.18,1.26a15.25,15.25,0,0,0,3.1,1.06c1.38.35,2.5.61,3.37.77l4,.74q11.33,2,16.32,4.22,12.58,5.63,12.58,19.69,0,11.88-8.93,19T472.77,196.6Z" transform="translate(-70.78 -59.77)"/><path class="cls-4" d="M557.71,196.6a43.61,43.61,0,0,1-21.52-5.34,38.79,38.79,0,0,1-15.08-14.77,43.2,43.2,0,0,1,0-42,38.66,38.66,0,0,1,15.08-14.69,46.1,46.1,0,0,1,43,0,38.93,38.93,0,0,1,15.12,14.73,42.92,42.92,0,0,1,0,42,39.09,39.09,0,0,1-15.12,14.77A43.47,43.47,0,0,1,557.71,196.6ZM542.8,170.9a21.67,21.67,0,0,0,29.81,0q5.83-5.94,5.84-15.36t-5.84-15.36a21.64,21.64,0,0,0-29.81,0Q537,146.12,537,155.54T542.8,170.9Z" transform="translate(-70.78 -59.77)"/><path class="cls-4" d="M659,114.83q13.22,0,21,8.82t7.8,23.66v47.11h-21V150.69q0-17.44-13.57-17.44-8.09,0-12.76,5.45t-4.68,14.87v40.85h-21V116.66h14.41l4.08,9.63a31.51,31.51,0,0,1,11.22-8.4A34.55,34.55,0,0,1,659,114.83Z" transform="translate(-70.78 -59.77)"/><path class="cls-4" d="M707.05,106.32V86.77h21v19.55Zm0,88.1V116.66h21v77.76Z" transform="translate(-70.78 -59.77)"/><path class="cls-4" d="M784.32,196.6A42,42,0,0,1,768,193.4a39.1,39.1,0,0,1-21.8-21.83,42.11,42.11,0,0,1-3.16-16.24,41.58,41.58,0,0,1,3.16-16.17,39.29,39.29,0,0,1,8.65-13A39.84,39.84,0,0,1,768,117.61a43.16,43.16,0,0,1,16.42-3.13q15,0,25.84,8.75A38.54,38.54,0,0,1,824,146.4H803.1a19.9,19.9,0,0,0-7.53-9,20.44,20.44,0,0,0-11.25-3.2,18.76,18.76,0,0,0-14.24,6.09,21.14,21.14,0,0,0-5.73,15.08,21.59,21.59,0,0,0,5.77,15.22,18.59,18.59,0,0,0,14.2,6.22,19.19,19.19,0,0,0,11.25-3.37,21.83,21.83,0,0,0,7.53-9.63h21.16a38.93,38.93,0,0,1-13.75,23.73Q799.51,196.6,784.32,196.6Z" transform="translate(-70.78 -59.77)"/><path class="cls-4" d="M865.74,196.6q-14.62,0-23.59-7.63t-9-20.14h20.46a9.18,9.18,0,0,0,3.62,7.66c2.37,1.79,5.5,2.67,9.39,2.67a14.31,14.31,0,0,0,7.84-2,6.47,6.47,0,0,0,3.2-5.77,5.24,5.24,0,0,0-1.09-3.3,8.08,8.08,0,0,0-3.41-2.36,30.68,30.68,0,0,0-4.57-1.48c-1.5-.35-3.47-.73-5.91-1.16q-3.3-.56-5.55-1c-1.51-.3-3.32-.76-5.45-1.37a31,31,0,0,1-5.38-2,30.2,30.2,0,0,1-4.61-2.92,16.16,16.16,0,0,1-3.87-4,21.11,21.11,0,0,1-2.39-5.38,24.26,24.26,0,0,1-.94-7,22,22,0,0,1,8.64-18q8.65-6.91,22.64-6.92t22.57,7.13q8.52,7.14,8.58,18.81h-20a8.27,8.27,0,0,0-3.13-6.89c-2-1.55-4.91-2.32-8.61-2.32a12.66,12.66,0,0,0-7.63,2,6.38,6.38,0,0,0-2.77,5.41,5.6,5.6,0,0,0,.45,2.29,4.22,4.22,0,0,0,1.62,1.76c.77.49,1.5.91,2.18,1.26a15.34,15.34,0,0,0,3.09,1.06c1.38.35,2.51.61,3.38.77l4,.74q11.32,2,16.31,4.22,12.59,5.63,12.59,19.69,0,11.88-8.93,19T865.74,196.6Z" transform="translate(-70.78 -59.77)"/></g><g class="cls-5"><path class="cls-6" d="M138.42,191.6q-16.45,0-26.55-9.63t-10.09-25.38V111.66h21V154.2q0,8.3,4.15,13t11.46,4.67q7.31,0,11.39-4.71t4.07-12.93V111.66h21v44.93q0,15.75-10,25.38T138.42,191.6Z" transform="translate(-70.78 -59.77)"/><path class="cls-6" d="M194,189.42V83.6h21V189.42Z" transform="translate(-70.78 -59.77)"/><path class="cls-6" d="M273.13,170.72h9.57v18.7H267.79q-12.8,0-20.21-7.42t-7.42-20.35V128.53H226.1V124l30.72-32.69h4v20.32h21.45v16.87h-21.1v30.31q0,5.68,3.1,8.79T273.13,170.72Z" transform="translate(-70.78 -59.77)"/><path class="cls-6" d="M336.77,111.23h6.89v19.83h-9.07q-8.86,0-12.69,4.19T318.06,149v40.43H297V111.66h13.43l3.73,9.56Q322.21,111.23,336.77,111.23Z" transform="translate(-70.78 -59.77)"/><path class="cls-6" d="M417.28,111.52H433v77.76H416.5l-1.83-7a37,37,0,0,1-25.17,9.28,41.33,41.33,0,0,1-20.88-5.34A38.12,38.12,0,0,1,354,171.46a42.59,42.59,0,0,1-5.27-21.06A42,42,0,0,1,354,129.48a38,38,0,0,1,14.63-14.69,41.51,41.51,0,0,1,20.88-5.31A37.15,37.15,0,0,1,415,119ZM376,165.62a22,22,0,0,0,30.3,0,22.38,22.38,0,0,0,0-30.52,21.94,21.94,0,0,0-30.3,0,22.28,22.28,0,0,0,0,30.44Z" transform="translate(-70.78 -59.77)"/><path class="cls-6" d="M480.77,191.6q-14.62,0-23.59-7.63t-9-20.14H468.6a9.2,9.2,0,0,0,3.62,7.66c2.37,1.79,5.5,2.67,9.39,2.67a14.27,14.27,0,0,0,7.84-2,6.47,6.47,0,0,0,3.2-5.77,5.18,5.18,0,0,0-1.09-3.3,8,8,0,0,0-3.41-2.36,30.68,30.68,0,0,0-4.57-1.48c-1.5-.35-3.47-.73-5.91-1.16q-3.3-.56-5.55-1t-5.45-1.37a31.3,31.3,0,0,1-5.38-2,30.15,30.15,0,0,1-4.6-2.92,16.16,16.16,0,0,1-3.87-4,20.77,20.77,0,0,1-2.39-5.38,23.91,23.91,0,0,1-.95-7,22,22,0,0,1,8.65-18q8.64-6.91,22.64-6.92t22.57,7.13q8.51,7.14,8.58,18.81H492a8.3,8.3,0,0,0-3.13-6.89q-3.06-2.32-8.61-2.32a12.64,12.64,0,0,0-7.63,2,6.37,6.37,0,0,0-2.78,5.41,5.45,5.45,0,0,0,.46,2.29,4.12,4.12,0,0,0,1.61,1.76c.78.49,1.5.91,2.18,1.26a15.25,15.25,0,0,0,3.1,1.06c1.38.35,2.5.61,3.37.77l4,.74q11.33,2,16.32,4.22,12.58,5.63,12.58,19.69,0,11.88-8.93,19T480.77,191.6Z" transform="translate(-70.78 -59.77)"/><path class="cls-6" d="M565.71,191.6a43.61,43.61,0,0,1-21.52-5.34,38.79,38.79,0,0,1-15.08-14.77,43.2,43.2,0,0,1,0-42,38.66,38.66,0,0,1,15.08-14.69,46.1,46.1,0,0,1,43,0,38.93,38.93,0,0,1,15.12,14.73,42.92,42.92,0,0,1,0,42,39.09,39.09,0,0,1-15.12,14.77A43.47,43.47,0,0,1,565.71,191.6ZM550.8,165.9a21.67,21.67,0,0,0,29.81,0q5.83-5.94,5.84-15.36t-5.84-15.36a21.64,21.64,0,0,0-29.81,0Q545,141.12,545,150.54T550.8,165.9Z" transform="translate(-70.78 -59.77)"/><path class="cls-6" d="M667,109.83q13.22,0,21,8.82t7.8,23.66v47.11h-21V145.69q0-17.44-13.57-17.44-8.09,0-12.76,5.45t-4.68,14.87v40.85h-21V111.66h14.41l4.08,9.63a31.51,31.51,0,0,1,11.22-8.4A34.55,34.55,0,0,1,667,109.83Z" transform="translate(-70.78 -59.77)"/><path class="cls-6" d="M715.05,101.32V81.77h21v19.55Zm0,88.1V111.66h21v77.76Z" transform="translate(-70.78 -59.77)"/><path class="cls-6" d="M792.32,191.6A42,42,0,0,1,776,188.4a39.1,39.1,0,0,1-21.8-21.83,42.11,42.11,0,0,1-3.16-16.24,41.58,41.58,0,0,1,3.16-16.17,39.29,39.29,0,0,1,8.65-13A39.84,39.84,0,0,1,776,112.61a43.16,43.16,0,0,1,16.42-3.13q15,0,25.84,8.75A38.54,38.54,0,0,1,832,141.4H811.1a19.9,19.9,0,0,0-7.53-9,20.44,20.44,0,0,0-11.25-3.2,18.76,18.76,0,0,0-14.24,6.09,21.14,21.14,0,0,0-5.73,15.08,21.59,21.59,0,0,0,5.77,15.22,18.59,18.59,0,0,0,14.2,6.22,19.19,19.19,0,0,0,11.25-3.37,21.83,21.83,0,0,0,7.53-9.63h21.16a38.93,38.93,0,0,1-13.75,23.73Q807.51,191.6,792.32,191.6Z" transform="translate(-70.78 -59.77)"/><path class="cls-6" d="M873.74,191.6q-14.62,0-23.59-7.63t-9-20.14h20.46a9.18,9.18,0,0,0,3.62,7.66c2.37,1.79,5.5,2.67,9.39,2.67a14.31,14.31,0,0,0,7.84-2,6.47,6.47,0,0,0,3.2-5.77,5.24,5.24,0,0,0-1.09-3.3,8.08,8.08,0,0,0-3.41-2.36,30.68,30.68,0,0,0-4.57-1.48c-1.5-.35-3.47-.73-5.91-1.16q-3.3-.56-5.55-1c-1.51-.3-3.32-.76-5.45-1.37a31,31,0,0,1-5.38-2,30.2,30.2,0,0,1-4.61-2.92,16.16,16.16,0,0,1-3.87-4,21.11,21.11,0,0,1-2.39-5.38,24.26,24.26,0,0,1-.94-7,22,22,0,0,1,8.64-18q8.65-6.91,22.64-6.92t22.57,7.13q8.52,7.14,8.58,18.81h-20a8.27,8.27,0,0,0-3.13-6.89c-2-1.55-4.91-2.32-8.61-2.32a12.66,12.66,0,0,0-7.63,2,6.38,6.38,0,0,0-2.77,5.41,5.6,5.6,0,0,0,.45,2.29,4.22,4.22,0,0,0,1.62,1.76c.77.49,1.5.91,2.18,1.26a15.34,15.34,0,0,0,3.09,1.06c1.38.35,2.51.61,3.38.77l4,.74q11.32,2,16.31,4.22,12.59,5.63,12.59,19.69,0,11.88-8.93,19T873.74,191.6Z" transform="translate(-70.78 -59.77)"/></g><g class="cls-7"><path class="cls-8" d="M135.42,192.6q-16.45,0-26.55-9.63T98.78,157.59V112.66h21V155.2q0,8.3,4.15,13t11.46,4.67q7.31,0,11.39-4.71t4.07-12.93V112.66h21v44.93q0,15.75-10,25.38T135.42,192.6Z" transform="translate(-70.78 -59.77)"/><path class="cls-8" d="M191,190.42V84.6h21V190.42Z" transform="translate(-70.78 -59.77)"/><path class="cls-8" d="M270.13,171.72h9.57v18.7H264.79q-12.8,0-20.21-7.42t-7.42-20.35V129.53H223.1V125l30.72-32.69h4v20.32h21.45v16.87h-21.1v30.31q0,5.68,3.1,8.79T270.13,171.72Z" transform="translate(-70.78 -59.77)"/><path class="cls-8" d="M333.77,112.23h6.89v19.83h-9.07q-8.86,0-12.69,4.19T315.06,150v40.43H294V112.66h13.43l3.73,9.56Q319.21,112.23,333.77,112.23Z" transform="translate(-70.78 -59.77)"/><path class="cls-8" d="M414.28,112.52H430v77.76H413.5l-1.83-7a37,37,0,0,1-25.17,9.28,41.33,41.33,0,0,1-20.88-5.34A38.12,38.12,0,0,1,351,172.46a42.59,42.59,0,0,1-5.27-21.06A42,42,0,0,1,351,130.48a38,38,0,0,1,14.63-14.69,41.51,41.51,0,0,1,20.88-5.31A37.15,37.15,0,0,1,412,120ZM373,166.62a22,22,0,0,0,30.3,0,22.38,22.38,0,0,0,0-30.52,21.94,21.94,0,0,0-30.3,0,22.28,22.28,0,0,0,0,30.44Z" transform="translate(-70.78 -59.77)"/><path class="cls-8" d="M477.77,192.6q-14.62,0-23.59-7.63t-9-20.14H465.6a9.2,9.2,0,0,0,3.62,7.66c2.37,1.79,5.5,2.67,9.39,2.67a14.27,14.27,0,0,0,7.84-2,6.47,6.47,0,0,0,3.2-5.77,5.18,5.18,0,0,0-1.09-3.3,8,8,0,0,0-3.41-2.36,30.68,30.68,0,0,0-4.57-1.48c-1.5-.35-3.47-.73-5.91-1.16q-3.3-.56-5.55-1t-5.45-1.37a31.3,31.3,0,0,1-5.38-2,30.15,30.15,0,0,1-4.6-2.92,16.16,16.16,0,0,1-3.87-4,20.77,20.77,0,0,1-2.39-5.38,23.91,23.91,0,0,1-.95-7,22,22,0,0,1,8.65-18q8.64-6.91,22.64-6.92t22.57,7.13q8.51,7.14,8.58,18.81H489a8.3,8.3,0,0,0-3.13-6.89q-3.06-2.32-8.61-2.32a12.64,12.64,0,0,0-7.63,2,6.37,6.37,0,0,0-2.78,5.41,5.45,5.45,0,0,0,.46,2.29,4.12,4.12,0,0,0,1.61,1.76c.78.49,1.5.91,2.18,1.26a15.25,15.25,0,0,0,3.1,1.06c1.38.35,2.5.61,3.37.77l4,.74q11.33,2,16.32,4.22,12.58,5.63,12.58,19.69,0,11.88-8.93,19T477.77,192.6Z" transform="translate(-70.78 -59.77)"/><path class="cls-8" d="M562.71,192.6a43.61,43.61,0,0,1-21.52-5.34,38.79,38.79,0,0,1-15.08-14.77,43.2,43.2,0,0,1,0-42,38.66,38.66,0,0,1,15.08-14.69,46.1,46.1,0,0,1,43,0,38.93,38.93,0,0,1,15.12,14.73,42.92,42.92,0,0,1,0,42,39.09,39.09,0,0,1-15.12,14.77A43.47,43.47,0,0,1,562.71,192.6ZM547.8,166.9a21.67,21.67,0,0,0,29.81,0q5.83-5.94,5.84-15.36t-5.84-15.36a21.64,21.64,0,0,0-29.81,0Q542,142.12,542,151.54T547.8,166.9Z" transform="translate(-70.78 -59.77)"/><path class="cls-8" d="M664,110.83q13.22,0,21,8.82t7.8,23.66v47.11h-21V146.69q0-17.44-13.57-17.44-8.09,0-12.76,5.45t-4.68,14.87v40.85h-21V112.66h14.41l4.08,9.63a31.51,31.51,0,0,1,11.22-8.4A34.55,34.55,0,0,1,664,110.83Z" transform="translate(-70.78 -59.77)"/><path class="cls-8" d="M712.05,102.32V82.77h21v19.55Zm0,88.1V112.66h21v77.76Z" transform="translate(-70.78 -59.77)"/><path class="cls-8" d="M789.32,192.6A42,42,0,0,1,773,189.4a39.1,39.1,0,0,1-21.8-21.83,42.11,42.11,0,0,1-3.16-16.24,41.58,41.58,0,0,1,3.16-16.17,39.29,39.29,0,0,1,8.65-13A39.84,39.84,0,0,1,773,113.61a43.16,43.16,0,0,1,16.42-3.13q15,0,25.84,8.75A38.54,38.54,0,0,1,829,142.4H808.1a19.9,19.9,0,0,0-7.53-9,20.44,20.44,0,0,0-11.25-3.2,18.76,18.76,0,0,0-14.24,6.09,21.14,21.14,0,0,0-5.73,15.08,21.59,21.59,0,0,0,5.77,15.22,18.59,18.59,0,0,0,14.2,6.22,19.19,19.19,0,0,0,11.25-3.37,21.83,21.83,0,0,0,7.53-9.63h21.16a38.93,38.93,0,0,1-13.75,23.73Q804.51,192.6,789.32,192.6Z" transform="translate(-70.78 -59.77)"/><path class="cls-8" d="M870.74,192.6q-14.62,0-23.59-7.63t-9-20.14h20.46a9.18,9.18,0,0,0,3.62,7.66c2.37,1.79,5.5,2.67,9.39,2.67a14.31,14.31,0,0,0,7.84-2,6.47,6.47,0,0,0,3.2-5.77,5.24,5.24,0,0,0-1.09-3.3,8.08,8.08,0,0,0-3.41-2.36,30.68,30.68,0,0,0-4.57-1.48c-1.5-.35-3.47-.73-5.91-1.16q-3.3-.56-5.55-1c-1.51-.3-3.32-.76-5.45-1.37a31,31,0,0,1-5.38-2,30.2,30.2,0,0,1-4.61-2.92,16.16,16.16,0,0,1-3.87-4,21.11,21.11,0,0,1-2.39-5.38,24.26,24.26,0,0,1-.94-7,22,22,0,0,1,8.64-18q8.65-6.91,22.64-6.92t22.57,7.13q8.52,7.14,8.58,18.81h-20a8.27,8.27,0,0,0-3.13-6.89c-2-1.55-4.91-2.32-8.61-2.32a12.66,12.66,0,0,0-7.63,2,6.38,6.38,0,0,0-2.77,5.41,5.6,5.6,0,0,0,.45,2.29,4.22,4.22,0,0,0,1.62,1.76c.77.49,1.5.91,2.18,1.26a15.34,15.34,0,0,0,3.09,1.06c1.38.35,2.51.61,3.38.77l4,.74q11.32,2,16.31,4.22,12.59,5.63,12.59,19.69,0,11.88-8.93,19T870.74,192.6Z" transform="translate(-70.78 -59.77)"/></g><g class="cls-9"><path class="cls-8" d="M132.42,194.6q-16.45,0-26.55-9.63T95.78,159.59V114.66h21V157.2q0,8.3,4.15,13t11.46,4.67q7.31,0,11.39-4.71t4.07-12.93V114.66h21v44.93q0,15.75-10,25.38T132.42,194.6Z" transform="translate(-70.78 -59.77)"/><path class="cls-8" d="M188,192.42V86.6h21V192.42Z" transform="translate(-70.78 -59.77)"/><path class="cls-8" d="M267.13,173.72h9.57v18.7H261.79q-12.8,0-20.21-7.42t-7.42-20.35V131.53H220.1V127l30.72-32.69h4v20.32h21.45v16.87h-21.1v30.31q0,5.68,3.1,8.79T267.13,173.72Z" transform="translate(-70.78 -59.77)"/><path class="cls-8" d="M330.77,114.23h6.89v19.83h-9.07q-8.86,0-12.69,4.19T312.06,152v40.43H291V114.66h13.43l3.73,9.56Q316.21,114.23,330.77,114.23Z" transform="translate(-70.78 -59.77)"/><path class="cls-8" d="M411.28,114.52H427v77.76H410.5l-1.83-7a37,37,0,0,1-25.17,9.28,41.33,41.33,0,0,1-20.88-5.34A38.12,38.12,0,0,1,348,174.46a42.59,42.59,0,0,1-5.27-21.06A42,42,0,0,1,348,132.48a38,38,0,0,1,14.63-14.69,41.51,41.51,0,0,1,20.88-5.31A37.15,37.15,0,0,1,409,122ZM370,168.62a22,22,0,0,0,30.3,0,22.38,22.38,0,0,0,0-30.52,21.94,21.94,0,0,0-30.3,0,22.28,22.28,0,0,0,0,30.44Z" transform="translate(-70.78 -59.77)"/><path class="cls-8" d="M474.77,194.6q-14.62,0-23.59-7.63t-9-20.14H462.6a9.2,9.2,0,0,0,3.62,7.66c2.37,1.79,5.5,2.67,9.39,2.67a14.27,14.27,0,0,0,7.84-2,6.47,6.47,0,0,0,3.2-5.77,5.18,5.18,0,0,0-1.09-3.3,8,8,0,0,0-3.41-2.36,30.68,30.68,0,0,0-4.57-1.48c-1.5-.35-3.47-.73-5.91-1.16q-3.3-.56-5.55-1t-5.45-1.37a31.3,31.3,0,0,1-5.38-2,30.15,30.15,0,0,1-4.6-2.92,16.16,16.16,0,0,1-3.87-4,20.77,20.77,0,0,1-2.39-5.38,23.91,23.91,0,0,1-.95-7,22,22,0,0,1,8.65-18q8.64-6.91,22.64-6.92t22.57,7.13q8.51,7.14,8.58,18.81H486a8.3,8.3,0,0,0-3.13-6.89q-3.06-2.33-8.61-2.32a12.64,12.64,0,0,0-7.63,2,6.37,6.37,0,0,0-2.78,5.41,5.45,5.45,0,0,0,.46,2.29,4.12,4.12,0,0,0,1.61,1.76c.78.49,1.5.91,2.18,1.26a15.25,15.25,0,0,0,3.1,1.06c1.38.35,2.5.61,3.37.77l4,.74q11.33,2,16.32,4.22,12.58,5.63,12.58,19.69,0,11.88-8.93,19T474.77,194.6Z" transform="translate(-70.78 -59.77)"/><path class="cls-8" d="M559.71,194.6a43.61,43.61,0,0,1-21.52-5.34,38.79,38.79,0,0,1-15.08-14.77,43.2,43.2,0,0,1,0-42,38.66,38.66,0,0,1,15.08-14.69,46.1,46.1,0,0,1,43,0,38.93,38.93,0,0,1,15.12,14.73,42.92,42.92,0,0,1,0,42,39.09,39.09,0,0,1-15.12,14.77A43.47,43.47,0,0,1,559.71,194.6ZM544.8,168.9a21.67,21.67,0,0,0,29.81,0q5.83-5.94,5.84-15.36t-5.84-15.36a21.64,21.64,0,0,0-29.81,0Q539,144.12,539,153.54T544.8,168.9Z" transform="translate(-70.78 -59.77)"/><path class="cls-8" d="M661,112.83q13.22,0,21,8.82t7.8,23.66v47.11h-21V148.69q0-17.44-13.57-17.44-8.09,0-12.76,5.45t-4.68,14.87v40.85h-21V114.66h14.41l4.08,9.63a31.51,31.51,0,0,1,11.22-8.4A34.55,34.55,0,0,1,661,112.83Z" transform="translate(-70.78 -59.77)"/><path class="cls-8" d="M709.05,104.32V84.77h21v19.55Zm0,88.1V114.66h21v77.76Z" transform="translate(-70.78 -59.77)"/><path class="cls-8" d="M786.32,194.6A42,42,0,0,1,770,191.4a39.1,39.1,0,0,1-21.8-21.83,42.11,42.11,0,0,1-3.16-16.24,41.58,41.58,0,0,1,3.16-16.17,39.29,39.29,0,0,1,8.65-13A39.84,39.84,0,0,1,770,115.61a43.16,43.16,0,0,1,16.42-3.13q15,0,25.84,8.75A38.54,38.54,0,0,1,826,144.4H805.1a19.9,19.9,0,0,0-7.53-9,20.44,20.44,0,0,0-11.25-3.2,18.76,18.76,0,0,0-14.24,6.09,21.14,21.14,0,0,0-5.73,15.08,21.59,21.59,0,0,0,5.77,15.22,18.59,18.59,0,0,0,14.2,6.22,19.19,19.19,0,0,0,11.25-3.37,21.83,21.83,0,0,0,7.53-9.63h21.16a38.93,38.93,0,0,1-13.75,23.73Q801.51,194.6,786.32,194.6Z" transform="translate(-70.78 -59.77)"/><path class="cls-8" d="M867.74,194.6q-14.62,0-23.59-7.63t-9-20.14h20.46a9.18,9.18,0,0,0,3.62,7.66c2.37,1.79,5.5,2.67,9.39,2.67a14.31,14.31,0,0,0,7.84-2,6.47,6.47,0,0,0,3.2-5.77,5.24,5.24,0,0,0-1.09-3.3,8.08,8.08,0,0,0-3.41-2.36,30.68,30.68,0,0,0-4.57-1.48c-1.5-.35-3.47-.73-5.91-1.16q-3.3-.56-5.55-1c-1.51-.3-3.32-.76-5.45-1.37a31,31,0,0,1-5.38-2,30.2,30.2,0,0,1-4.61-2.92,16.16,16.16,0,0,1-3.87-4,21.11,21.11,0,0,1-2.39-5.38,24.26,24.26,0,0,1-.94-7,22,22,0,0,1,8.64-18q8.65-6.91,22.64-6.92t22.57,7.13q8.52,7.14,8.58,18.81h-20a8.27,8.27,0,0,0-3.13-6.89c-2-1.55-4.91-2.32-8.61-2.32a12.66,12.66,0,0,0-7.63,2,6.38,6.38,0,0,0-2.77,5.41,5.6,5.6,0,0,0,.45,2.29,4.22,4.22,0,0,0,1.62,1.76c.77.49,1.5.91,2.18,1.26a15.34,15.34,0,0,0,3.09,1.06c1.38.35,2.51.61,3.38.77l4,.74q11.32,2,16.31,4.22,12.59,5.63,12.59,19.69,0,11.88-8.93,19T867.74,194.6Z" transform="translate(-70.78 -59.77)"/></g><path class="cls-10" d="M716,209.49H720v19.44h-4.13l-.45-1.74a9.24,9.24,0,0,1-6.3,2.32,10.25,10.25,0,0,1-5.22-1.34,9.41,9.41,0,0,1-3.65-3.7,10.59,10.59,0,0,1-1.32-5.26,10.48,10.48,0,0,1,1.32-5.23,9.4,9.4,0,0,1,3.65-3.67,10.34,10.34,0,0,1,5.22-1.33,9.27,9.27,0,0,1,6.38,2.37ZM705.72,223a5.47,5.47,0,0,0,7.57,0,5.56,5.56,0,0,0,0-7.62,5.47,5.47,0,0,0-7.57,0,5.56,5.56,0,0,0,0,7.62Z" transform="translate(-70.78 -59.77)"/><path class="cls-10" d="M735.61,209a10.28,10.28,0,0,1,5.21,1.33,9.49,9.49,0,0,1,3.65,3.68,11.14,11.14,0,0,1,0,10.52,9.54,9.54,0,0,1-3.65,3.7,10.29,10.29,0,0,1-5.21,1.34,9.29,9.29,0,0,1-5.35-1.64V236H725V209.52h3.46l.9,1.78A9.06,9.06,0,0,1,735.61,209Zm-4.23,14.07a5.5,5.5,0,0,0,7.58,0,5.6,5.6,0,0,0,0-7.63,5.5,5.5,0,0,0-7.58,0,5.58,5.58,0,0,0,0,7.61Z" transform="translate(-70.78 -59.77)"/><path class="cls-10" d="M749.55,206.94v-4.89h5.24v4.89Zm0,22V209.52h5.25V229Z" transform="translate(-70.78 -59.77)"/><path class="cls-6" d="M716,209.49H720v19.44h-4.13l-.45-1.74a9.24,9.24,0,0,1-6.3,2.32,10.25,10.25,0,0,1-5.22-1.34,9.41,9.41,0,0,1-3.65-3.7,10.59,10.59,0,0,1-1.32-5.26,10.48,10.48,0,0,1,1.32-5.23,9.4,9.4,0,0,1,3.65-3.67,10.34,10.34,0,0,1,5.22-1.33,9.27,9.27,0,0,1,6.38,2.37ZM705.72,223a5.47,5.47,0,0,0,7.57,0,5.56,5.56,0,0,0,0-7.62,5.47,5.47,0,0,0-7.57,0,5.56,5.56,0,0,0,0,7.62Z" transform="translate(-70.78 -59.77)"/><path class="cls-6" d="M735.61,209a10.28,10.28,0,0,1,5.21,1.33,9.49,9.49,0,0,1,3.65,3.68,11.14,11.14,0,0,1,0,10.52,9.54,9.54,0,0,1-3.65,3.7,10.29,10.29,0,0,1-5.21,1.34,9.29,9.29,0,0,1-5.35-1.64V236H725V209.52h3.46l.9,1.78A9.06,9.06,0,0,1,735.61,209Zm-4.23,14.07a5.5,5.5,0,0,0,7.58,0,5.6,5.6,0,0,0,0-7.63,5.5,5.5,0,0,0-7.58,0,5.58,5.58,0,0,0,0,7.61Z" transform="translate(-70.78 -59.77)"/><path class="cls-6" d="M749.55,206.94v-4.89h5.24v4.89Zm0,22V209.52h5.25V229Z" transform="translate(-70.78 -59.77)"/><path class="cls-8" d="M716.75,211.49h3.94v19.44h-4.13l-.46-1.74a9.24,9.24,0,0,1-6.29,2.32,10.26,10.26,0,0,1-5.23-1.34,9.54,9.54,0,0,1-3.65-3.7,10.59,10.59,0,0,1-1.32-5.26,10.48,10.48,0,0,1,1.32-5.23,9.53,9.53,0,0,1,3.65-3.67,10.35,10.35,0,0,1,5.23-1.33,9.29,9.29,0,0,1,6.38,2.37ZM706.44,225a5.49,5.49,0,0,0,7.58,0,5.33,5.33,0,0,0-3.79-9.14,5.11,5.11,0,0,0-3.79,1.52,5.59,5.59,0,0,0,0,7.62Z" transform="translate(-70.78 -59.77)"/><path class="cls-8" d="M736.33,211a10.28,10.28,0,0,1,5.21,1.33,9.43,9.43,0,0,1,3.65,3.68,11.14,11.14,0,0,1,0,10.52,9.48,9.48,0,0,1-3.65,3.7,10.29,10.29,0,0,1-5.21,1.34,9.23,9.23,0,0,1-5.34-1.64V238h-5.26V211.52h3.46l.9,1.78A9.09,9.09,0,0,1,736.33,211Zm-4.23,14.07a5.5,5.5,0,0,0,7.58,0,5.6,5.6,0,0,0,0-7.63,5.5,5.5,0,0,0-7.58,0,5.58,5.58,0,0,0,0,7.61Z" transform="translate(-70.78 -59.77)"/><path class="cls-8" d="M750.27,208.94v-4.89h5.24v4.89Zm0,22V211.52h5.26V231Z" transform="translate(-70.78 -59.77)"/></svg>